<svg width="45" height="21" viewBox="0 0 45 21" fill="none" xmlns="http://www.w3.org/2000/svg">
<path d="M10.8926 0.380859L4.28613 20.6191H0.655273L7.26172 0.380859H10.8926ZM28.2734 16H16.833C16.833 14.9902 16.9619 14.0628 17.2197 13.2178C17.4775 12.3727 17.8141 11.6781 18.2295 11.1338C18.652 10.5824 19.1104 10.0811 19.6045 9.62988C20.1058 9.17155 20.6035 8.78125 21.0977 8.45898C21.599 8.12956 22.0573 7.82161 22.4727 7.53516C22.8952 7.24154 23.2354 6.93001 23.4932 6.60059C23.751 6.264 23.8799 5.91309 23.8799 5.54785C23.8799 4.59538 23.3285 4.11914 22.2256 4.11914C21.8031 4.11914 21.4271 4.24089 21.0977 4.48438C20.7682 4.72786 20.5426 4.96419 20.4209 5.19336L20.249 5.54785L16.7256 3.9043C16.7686 3.80404 16.8294 3.66797 16.9082 3.49609C16.9941 3.32422 17.1982 3.02702 17.5205 2.60449C17.8428 2.1748 18.208 1.79525 18.6162 1.46582C19.0316 1.13639 19.6009 0.835612 20.3242 0.563477C21.0475 0.291341 21.8281 0.155273 22.666 0.155273C24.2917 0.155273 25.6309 0.649414 26.6836 1.6377C27.7435 2.61882 28.2734 3.8112 28.2734 5.21484C28.2734 5.95964 28.1266 6.63281 27.833 7.23438C27.5394 7.82878 27.1562 8.33366 26.6836 8.74902C26.2181 9.15723 25.7383 9.52604 25.2441 9.85547C24.7572 10.1849 24.2523 10.5394 23.7295 10.9189C23.2139 11.2985 22.8236 11.6709 22.5586 12.0361H28.2734V16ZM41.3789 20.6191L34.7725 0.380859H38.4033L45.0098 20.6191H41.3789Z" fill="#1C77EF"/>
</svg>
