<svg width="45" height="21" viewBox="0 0 45 21" fill="none" xmlns="http://www.w3.org/2000/svg">
<path d="M10.8926 0.380859L4.28613 20.6191H0.655273L7.26172 0.380859H10.8926ZM25.749 7.85742C25.8206 7.88607 25.9137 7.92904 26.0283 7.98633C26.1501 8.03646 26.3613 8.16536 26.6621 8.37305C26.9629 8.57357 27.2279 8.80632 27.457 9.07129C27.6934 9.33626 27.9082 9.70508 28.1016 10.1777C28.2949 10.6432 28.3916 11.1553 28.3916 11.7139C28.3916 12.9743 27.8366 14.0771 26.7266 15.0225C25.6165 15.9678 24.1914 16.4404 22.4512 16.4404C21.6921 16.4404 20.9652 16.3509 20.2705 16.1719C19.583 16 19.0137 15.7887 18.5625 15.5381C18.1185 15.2874 17.721 15.0439 17.3701 14.8076C17.0264 14.5641 16.7757 14.3529 16.6182 14.1738L16.3926 13.9053L18.8203 11.3809C18.9062 11.4954 19.0316 11.6387 19.1963 11.8105C19.3682 11.9753 19.7227 12.2008 20.2598 12.4873C20.7969 12.7738 21.3411 12.917 21.8926 12.917C22.5228 12.917 23.0277 12.7559 23.4072 12.4336C23.7939 12.1113 23.9873 11.7246 23.9873 11.2734C23.9873 10.8652 23.8154 10.5251 23.4717 10.2529C23.1279 9.98079 22.641 9.84473 22.0107 9.84473H20.3564V6.53613H21.8926C22.3796 6.53613 22.777 6.40007 23.085 6.12793C23.3929 5.84863 23.5469 5.51204 23.5469 5.11816C23.5469 4.71712 23.3929 4.37695 23.085 4.09766C22.777 3.81836 22.3796 3.67871 21.8926 3.67871C21.4414 3.67871 21.001 3.78255 20.5713 3.99023C20.1488 4.19076 19.8444 4.39486 19.6582 4.60254L19.3682 4.89258L16.9512 2.46484C16.9941 2.40755 17.0586 2.32878 17.1445 2.22852C17.2305 2.12826 17.4382 1.94206 17.7676 1.66992C18.1042 1.39779 18.4658 1.16504 18.8525 0.97168C19.2393 0.771159 19.7549 0.584961 20.3994 0.413086C21.0439 0.241211 21.7279 0.155273 22.4512 0.155273C24.0911 0.155273 25.416 0.588542 26.4258 1.45508C27.4427 2.32161 27.9512 3.35645 27.9512 4.55957C27.9512 5.01074 27.8724 5.43327 27.7148 5.82715C27.5645 6.21387 27.3818 6.52897 27.167 6.77246C26.9521 7.01595 26.7373 7.22363 26.5225 7.39551C26.3148 7.56022 26.1357 7.67839 25.9854 7.75L25.749 7.85742ZM41.0352 20.6191L34.4287 0.380859H38.0596L44.666 20.6191H41.0352Z" fill="#1C77EF"/>
</svg>
