<svg width="17" height="17" viewBox="0 0 17 17" fill="none" xmlns="http://www.w3.org/2000/svg">
<path d="M5.1845 14.0515C5.16442 14.0515 5.13764 14.0649 5.11756 14.0649C3.81908 13.4223 2.76155 12.3581 2.1123 11.0596C2.1123 11.0395 2.12569 11.0128 2.12569 10.9927C2.94226 11.2336 3.78561 11.4143 4.62226 11.5549C4.76952 12.3983 4.94354 13.2349 5.1845 14.0515Z" fill="#1C77EF"/>
<path d="M14.0796 11.0663C13.417 12.3983 12.3126 13.4759 10.9673 14.1251C11.2216 13.2751 11.4358 12.4183 11.5764 11.5549C12.4197 11.4143 13.2497 11.2336 14.0662 10.9927C14.0596 11.0194 14.0796 11.0462 14.0796 11.0663Z" fill="#1C77EF"/>
<path d="M14.1332 5.21619C13.2898 4.96185 12.4398 4.75436 11.5764 4.60711C11.4358 3.74368 11.2283 2.88695 10.9673 2.05029C12.3528 2.71292 13.4706 3.83069 14.1332 5.21619Z" fill="#1C77EF"/>
<path d="M5.18433 2.12408C4.94337 2.94066 4.76935 3.77062 4.62879 4.61396C3.76537 4.74783 2.90863 4.96201 2.05859 5.21635C2.70784 3.87102 3.78545 2.76663 5.1174 2.104C5.13748 2.104 5.16425 2.12408 5.18433 2.12408Z" fill="#1C77EF"/>
<path d="M10.4316 4.46672C8.87881 4.2927 7.31259 4.2927 5.75977 4.46672C5.9271 3.54975 6.14128 2.63278 6.44247 1.74927C6.45586 1.69573 6.44917 1.65557 6.45586 1.60202C6.98463 1.47485 7.52678 1.39453 8.0957 1.39453C8.65793 1.39453 9.20678 1.47485 9.72885 1.60202C9.73554 1.65557 9.73554 1.69573 9.74893 1.74927C10.0501 2.63947 10.2643 3.54975 10.4316 4.46672Z" fill="#1C77EF"/>
<path d="M4.47502 10.4233C3.55136 10.256 2.64108 10.0418 1.75757 9.74063C1.70403 9.72724 1.66387 9.73394 1.61032 9.72724C1.48315 9.19848 1.40283 8.65633 1.40283 8.0874C1.40283 7.52517 1.48315 6.97633 1.61032 6.45425C1.66387 6.44756 1.70403 6.44756 1.75757 6.43417C2.64777 6.13967 3.55136 5.9188 4.47502 5.75146C4.30769 7.30429 4.30769 8.87051 4.47502 10.4233Z" fill="#1C77EF"/>
<path d="M14.789 8.0874C14.789 8.65633 14.7087 9.19848 14.5815 9.72724C14.528 9.73394 14.4878 9.72724 14.4342 9.74063C13.544 10.0351 12.6338 10.256 11.7168 10.4233C11.8908 8.87051 11.8908 7.30429 11.7168 5.75146C12.6338 5.9188 13.5507 6.13298 14.4342 6.43417C14.4878 6.44756 14.528 6.45425 14.5815 6.45425C14.7087 6.98302 14.789 7.52517 14.789 8.0874Z" fill="#1C77EF"/>
<path d="M10.4316 11.7085C10.2643 12.6322 10.0501 13.5424 9.74893 14.4259C9.73554 14.4795 9.73554 14.5197 9.72885 14.5732C9.20678 14.7004 8.65793 14.7807 8.0957 14.7807C7.52678 14.7807 6.98463 14.7004 6.45586 14.5732C6.44917 14.5197 6.45586 14.4795 6.44247 14.4259C6.14797 13.5357 5.9271 12.6322 5.75977 11.7085C6.53618 11.7955 7.31259 11.8557 8.0957 11.8557C8.87881 11.8557 9.66192 11.7955 10.4316 11.7085Z" fill="#1C77EF"/>
<path d="M10.6151 10.6068C8.94108 10.818 7.25139 10.818 5.57735 10.6068C5.36614 8.93278 5.36614 7.24309 5.57735 5.56905C7.25139 5.35784 8.94108 5.35784 10.6151 5.56905C10.8263 7.24309 10.8263 8.93278 10.6151 10.6068Z" fill="#1C77EF"/>
</svg>
