<svg width="165" height="860" viewBox="0 0 165 860" fill="none" xmlns="http://www.w3.org/2000/svg">
<path d="M149 1C223 552.5 -7.54455 729.884 1.49958 637.5C10.5437 545.116 149 532.821 149 858.5" stroke="url(#paint0_linear_34_2810)" stroke-width="2" stroke-linecap="round" stroke-dasharray="10 5"/>
<path d="M126.883 669.824L107.973 652.483C112.046 652.432 116.117 652.402 120.188 652.235L126.883 669.824Z" fill="#0068D7"/>
<path d="M126.883 669.824L129.451 644.233C126.383 646.925 123.331 649.631 120.188 652.235L126.883 669.824Z" fill="#1E90FF"/>
<path d="M121.738 656.308L120.188 652.235C123.331 649.631 126.383 646.925 129.451 644.233L128.884 649.888L121.738 656.308Z" fill="#2E3BCD"/>
<path d="M121.721 656.324L112.152 656.315L107.972 652.483C112.046 652.432 116.117 652.402 120.188 652.235L121.738 656.308L121.721 656.324Z" fill="#0A169B"/>
<defs>
<linearGradient id="paint0_linear_34_2810" x1="136.5" y1="-41" x2="151" y2="859" gradientUnits="userSpaceOnUse">
<stop stop-color="#1C77EF" stop-opacity="0"/>
<stop offset="0.546196" stop-color="#1C77EF"/>
<stop offset="0.747018" stop-color="#1C77EF"/>
<stop offset="1" stop-color="#1C77EF" stop-opacity="0"/>
</linearGradient>
</defs>
</svg>
