<svg width="363" height="501" viewBox="0 0 363 501" fill="none" xmlns="http://www.w3.org/2000/svg">
<path d="M171.282 0.999855C138.674 75.7684 121.195 182.267 116.178 262.73C112.561 320.729 143.03 286.189 173.594 281.289C240.004 270.641 160.5 463 182 499.5" stroke="url(#paint0_linear_36_312)" stroke-width="2" stroke-linecap="round" stroke-dasharray="10 5"/>
<path d="M153.15 287.537L134.686 305.353C134.884 301.283 135.103 297.219 135.185 293.145L153.15 287.537Z" fill="#0068D7"/>
<path d="M153.15 287.537L127.764 283.41C130.264 286.637 132.778 289.849 135.185 293.145L153.15 287.537Z" fill="#1E90FF"/>
<path d="M139.345 291.847L135.184 293.145C132.778 289.849 130.263 286.637 127.763 283.41L133.373 284.322L139.345 291.847Z" fill="#2E3BCD"/>
<path d="M139.36 291.865L138.767 301.415L134.686 305.353C134.884 301.283 135.103 297.218 135.185 293.145L139.345 291.846L139.36 291.865Z" fill="#0A169B"/>
<defs>
<linearGradient id="paint0_linear_36_312" x1="177" y1="1" x2="177" y2="499" gradientUnits="userSpaceOnUse">
<stop stop-color="#1C77EF" stop-opacity="0"/>
<stop offset="0.3" stop-color="#1C77EF"/>
<stop offset="0.7" stop-color="#1C77EF"/>
<stop offset="1" stop-color="#1C77EF" stop-opacity="0"/>
</linearGradient>
</defs>
</svg>
