<svg width="171" height="165" viewBox="0 0 171 165" fill="none" xmlns="http://www.w3.org/2000/svg">
<path d="M179.289 40.81C109.964 118.573 33.6501 89.7594 61.3944 70.6052C89.1387 51.451 124.839 86.7988 34.4677 163.126" stroke="url(#paint0_linear_64_855)" stroke-width="2" stroke-linecap="round" stroke-dasharray="10 5"/>
<path d="M70.0002 127.565L75.6171 104.253C77.503 107.561 79.3704 110.875 81.3502 114.128L70.0002 127.565Z" fill="#0068D7"/>
<path d="M70.0001 127.565L92.0865 118.079C88.4962 116.79 84.902 115.519 81.35 114.128L70.0001 127.565Z" fill="#1E90FF"/>
<path d="M78.7218 117.239L81.3502 114.128C84.9022 115.519 88.4964 116.789 92.0867 118.079L87.2063 120.175L78.7218 117.239Z" fill="#2E3BCD"/>
<path d="M78.7009 117.232L74.3757 109.405L75.617 104.253C77.5028 107.561 79.3702 110.875 81.35 114.128L78.7216 117.24L78.7009 117.232Z" fill="#0A169B"/>
<defs>
<linearGradient id="paint0_linear_64_855" x1="191" y1="30" x2="34.8168" y2="163.82" gradientUnits="userSpaceOnUse">
<stop stop-color="#1C77EF" stop-opacity="0"/>
<stop offset="0.546196" stop-color="#1C77EF"/>
<stop offset="0.747018" stop-color="#1C77EF"/>
<stop offset="1" stop-color="#1C77EF" stop-opacity="0"/>
</linearGradient>
</defs>
</svg>
