<svg width="144" height="40" viewBox="0 0 144 40" fill="none" xmlns="http://www.w3.org/2000/svg">
<path d="M134.908 21.5826L132.308 14.5677L129.692 21.5826H134.908ZM136.433 25.5443H128.168L126.33 30.5784H121.427L129.857 9.22084H134.744L143.174 30.5784H138.271L136.433 25.5443Z" fill="#141517"/>
<path d="M114.402 9.22084H118.991V30.5784H115.015L104.463 17.0102V30.5784H99.8599V9.22084H103.85L114.402 22.8039V9.22084Z" fill="#141517"/>
<path d="M90.3687 30.5784V9.22084H94.972V30.5784H90.3687Z" fill="#141517"/>
<path d="M69.2495 30.5784V9.22084H78.7402C80.8625 9.22084 82.6162 9.90099 84.0012 11.2613C85.3961 12.6116 86.0936 14.2698 86.0936 16.2358C86.0936 17.0897 85.9591 17.889 85.69 18.6336C85.421 19.3783 85.1022 19.979 84.7335 20.4358C84.3748 20.8925 84.0061 21.2847 83.6275 21.6124C83.2489 21.94 82.9251 22.1635 82.656 22.2826L82.2674 22.4911L86.8558 30.5784H81.9536L77.8285 23.1018H73.8529V30.5784H69.2495ZM81.5052 16.2358C81.5052 15.4017 81.2262 14.7116 80.6682 14.1655C80.1202 13.6194 79.4277 13.3464 78.5907 13.3464H73.8529V18.9911H78.5907C79.4277 18.9911 80.1202 18.728 80.6682 18.2017C81.2262 17.6656 81.5052 17.0102 81.5052 16.2358Z" fill="#141517"/>
<path d="M49.0568 14.9252C47.7217 16.2755 47.0541 17.9386 47.0541 19.9145C47.0541 21.8805 47.7217 23.5387 49.0568 24.889C50.392 26.2394 52.0161 26.9146 53.9292 26.9146C55.8523 26.9146 57.4814 26.2394 58.8165 24.889C60.1517 23.5387 60.8193 21.8805 60.8193 19.9145C60.8193 17.9386 60.1517 16.2755 58.8165 14.9252C57.4814 13.5649 55.8523 12.8847 53.9292 12.8847C52.0161 12.8847 50.392 13.5649 49.0568 14.9252ZM45.6641 27.7784C43.4222 25.594 42.3013 22.9677 42.3013 19.8996C42.3013 16.8315 43.4222 14.2103 45.6641 12.0358C47.916 9.8613 50.671 8.77406 53.9292 8.77406C57.1974 8.77406 59.9524 9.8613 62.1943 12.0358C64.4462 14.2103 65.5721 16.8315 65.5721 19.8996C65.5721 22.9677 64.4462 25.594 62.1943 27.7784C59.9524 29.9529 57.1974 31.0401 53.9292 31.0401C50.671 31.0401 47.916 29.9529 45.6641 27.7784Z" fill="#141517"/>
<path d="M33.5573 -9.53674e-06L31.148 39.9998C27.076 35.1108 23.0322 30.2047 18.8218 25.4336L33.5573 -9.53674e-06Z" fill="#0068D7"/>
<path d="M33.5577 0.000141144L0 22.0793C6.28494 23.1489 12.5706 24.1856 18.8222 25.4336L33.5577 0.000141144Z" fill="#1E90FF"/>
<path d="M22.2346 19.5441L18.8222 25.4338C12.5706 24.1858 6.28494 23.1491 0 22.0795L7.41518 17.2007L22.2346 19.5441Z" fill="#2E3BCD"/>
<path d="M22.2708 19.5497L31.6809 31.1601L31.1485 40C27.0765 35.1109 23.0327 30.2048 18.8223 25.4337L22.2346 19.5439L22.2708 19.5497Z" fill="#0A169B"/>
</svg>
