<svg width="52" height="52" viewBox="0 0 52 52" fill="none" xmlns="http://www.w3.org/2000/svg">
<path d="M24.96 4.03711C25.6453 3.89143 26.3547 3.89143 27.04 4.03711C27.7777 4.194 28.493 4.59456 30.2998 5.6377L41.4844 12.0947C43.2911 13.1378 43.9953 13.5578 44.5 14.1182C44.9689 14.6389 45.3235 15.2526 45.54 15.9189C45.7731 16.6363 45.7842 17.4563 45.7842 19.543V32.457C45.7842 34.5437 45.7731 35.3637 45.54 36.0811C45.3235 36.7474 44.9689 37.3611 44.5 37.8818C43.9953 38.4422 43.2911 38.8622 41.4844 39.9053L30.2998 46.3623C28.493 47.4054 27.7777 47.806 27.04 47.9629C26.3547 48.1086 25.6453 48.1086 24.96 47.9629C24.2223 47.806 23.507 47.4054 21.7002 46.3623L10.5156 39.9053C8.70889 38.8622 8.00472 38.4422 7.5 37.8818C7.03115 37.3611 6.67649 36.7474 6.45996 36.0811C6.22686 35.3637 6.21582 34.5437 6.21582 32.457V19.543C6.21582 17.4563 6.22686 16.6363 6.45996 15.9189C6.67649 15.2526 7.03115 14.6389 7.5 14.1182C8.00472 13.5578 8.70889 13.1378 10.5156 12.0947L21.7002 5.6377C23.507 4.59456 24.2223 4.194 24.96 4.03711Z" stroke="#1C77EF" stroke-width="2"/>
<path d="M25.792 12.3311C25.9291 12.3019 26.0709 12.3019 26.208 12.3311C26.3261 12.3562 26.4586 12.4199 27.0996 12.79L36.8906 18.4424C37.5313 18.8123 37.6526 18.8957 37.7334 18.9854C37.8272 19.0895 37.8981 19.2124 37.9414 19.3457C37.9787 19.4606 37.9902 19.6072 37.9902 20.3477V31.6523C37.9902 32.3928 37.9787 32.5394 37.9414 32.6543C37.8981 32.7876 37.8272 32.9105 37.7334 33.0146C37.6526 33.1043 37.5313 33.1877 36.8906 33.5576L27.0996 39.21C26.4586 39.5801 26.3261 39.6438 26.208 39.6689C26.0709 39.6981 25.9291 39.6981 25.792 39.6689C25.6739 39.6438 25.5414 39.5801 24.9004 39.21L15.1094 33.5576C14.4687 33.1877 14.3474 33.1043 14.2666 33.0146C14.1728 32.9105 14.1019 32.7876 14.0586 32.6543C14.0213 32.5394 14.0098 32.3928 14.0098 31.6523V20.3477C14.0098 19.6072 14.0213 19.4606 14.0586 19.3457C14.1019 19.2124 14.1728 19.0895 14.2666 18.9854C14.3474 18.8957 14.4687 18.8123 15.1094 18.4424L24.9004 12.79C25.5414 12.4199 25.6739 12.3562 25.792 12.3311Z" stroke="#1C77EF" stroke-width="2"/>
</svg>
