<svg width="16" height="14" viewBox="0 0 16 14" fill="none" xmlns="http://www.w3.org/2000/svg">
<path d="M1.09992 5.93461C5.39487 4.06337 8.25885 2.82973 9.69185 2.2337C13.7834 0.531898 14.6335 0.236279 15.1877 0.226413C15.3095 0.22437 15.582 0.254575 15.7586 0.397807C15.9076 0.51875 15.9486 0.682127 15.9683 0.796794C15.9879 0.911462 16.0123 1.17268 15.9929 1.37678C15.7712 3.70641 14.8118 9.35981 14.3237 11.969C14.1172 13.0731 13.7105 13.4433 13.3168 13.4795C12.4613 13.5582 11.8116 12.9141 10.9829 12.3709C9.68624 11.5209 8.95369 10.9918 7.69503 10.1623C6.24042 9.20376 7.18338 8.67692 8.01236 7.81591C8.22931 7.59058 11.999 4.16178 12.0719 3.85073C12.0811 3.81183 12.0895 3.66682 12.0034 3.59026C11.9172 3.51369 11.7901 3.53987 11.6983 3.5607C11.5683 3.59021 9.4968 4.95939 5.48389 7.66822C4.89591 8.07197 4.36333 8.26869 3.88616 8.25838C3.36012 8.24702 2.34822 7.96095 1.59598 7.71643C0.673328 7.41651 -0.0599784 7.25794 0.00387615 6.74859C0.0371355 6.48328 0.402482 6.21196 1.09992 5.93461Z" fill="#0088CC"/>
</svg>
