<svg width="52" height="52" viewBox="0 0 52 52" fill="none" xmlns="http://www.w3.org/2000/svg">
<path d="M23.9844 7.21777C25.2683 6.65232 26.7317 6.65232 28.0156 7.21777C28.6501 7.4973 29.303 8.08974 30.1729 9.29492C31.0405 10.4971 32.034 12.1762 33.4043 14.4951L42.5801 30.0254C43.9921 32.415 45.0161 34.1476 45.6689 35.5264C46.3243 36.9105 46.5303 37.7885 46.4619 38.4873C46.3231 39.9046 45.5861 41.1956 44.4365 42.0361C43.8697 42.4506 43.0094 42.7194 41.4844 42.8594C39.9652 42.9988 37.9525 43 35.1768 43H16.8232C14.0475 43 12.0348 42.9988 10.5156 42.8594C8.9906 42.7194 8.13027 42.4506 7.56348 42.0361C6.41392 41.1956 5.67692 39.9046 5.53809 38.4873C5.46968 37.7885 5.6757 36.9105 6.33105 35.5264C6.98392 34.1476 8.00787 32.415 9.41992 30.0254L18.5957 14.4951C19.966 12.1762 20.9595 10.4971 21.8271 9.29492C22.697 8.08974 23.3499 7.4973 23.9844 7.21777Z" stroke="#1C77EF" stroke-width="2"/>
<path d="M25.5996 15.9707C25.8548 15.8592 26.1452 15.8592 26.4004 15.9707C26.4469 15.9911 26.5781 16.069 26.8457 16.4346C27.1116 16.7979 27.4241 17.3169 27.8867 18.0879L37.2344 33.668C37.7204 34.478 38.0482 35.0271 38.2539 35.4541C38.4623 35.8868 38.4674 36.0443 38.4629 36.0928C38.4364 36.3772 38.2898 36.6365 38.0596 36.8057C38.0203 36.8345 37.8824 36.9122 37.4043 36.9561C36.9324 36.9993 36.2931 37 35.3486 37H16.6514C15.7069 37 15.0676 36.9993 14.5957 36.9561C14.1176 36.9122 13.9797 36.8345 13.9404 36.8057C13.7102 36.6365 13.5636 36.3772 13.5371 36.0928C13.5326 36.0443 13.5377 35.8868 13.7461 35.4541C13.9518 35.0271 14.2796 34.4781 14.7656 33.668L24.1133 18.0879C24.5759 17.3169 24.8884 16.7979 25.1543 16.4346C25.4219 16.069 25.5531 15.9911 25.5996 15.9707Z" stroke="#1C77EF" stroke-width="2"/>
</svg>
